<svg width="1920" height="581" viewBox="0 0 1920 581" fill="none" xmlns="http://www.w3.org/2000/svg">
<rect y="0.332031" width="1920" height="580" fill="#60E1CB"/>
<mask id="mask0_134_384" style="mask-type:alpha" maskUnits="userSpaceOnUse" x="0" y="0" width="1920" height="581">
<rect y="0.332031" width="1920" height="580" fill="#60E1CB"/>
</mask>
<g mask="url(#mask0_134_384)">
<path d="M2269.5 -240.668C2218.83 -137.335 2076.9 63.432 1914.5 39.832C1752.1 16.232 1812.83 216.999 1863.5 320.332C1910.67 447.665 1947.3 641.932 1716.5 400.332C1485.7 158.732 1227 368.999 1126.5 504.332L945 752.832" stroke="#E7E7E7" stroke-width="3"/>
<path d="M222.406 -956.388C256.276 -937.007 307.04 -872.624 239.137 -770.138C171.235 -667.652 274.37 -359.309 334.425 -217.949L520.471 210.122C545.713 269.435 609.1 359.592 660.719 245.716C712.337 131.841 454.855 118.626 319.662 126.252L-25.2056 140.832" stroke="#E7E7E7" stroke-width="3"/>
<g opacity="0.15">
<circle cx="38.5" cy="475.832" r="200.5" fill="white"/>
</g>
</g>
<g opacity="0.15">
<path d="M1711 150.332C1711 146.13 1710.17 141.969 1708.56 138.086C1706.96 134.204 1704.6 130.676 1701.63 127.705C1698.66 124.733 1695.13 122.376 1691.25 120.768C1687.36 119.16 1683.2 118.332 1679 118.332C1674.8 118.332 1670.64 119.16 1666.75 120.768C1662.87 122.376 1659.34 124.733 1656.37 127.705C1653.4 130.676 1651.04 134.204 1649.44 138.086C1647.83 141.969 1647 146.13 1647 150.332L1679 150.332H1711Z" fill="white"/>
</g>
</svg>
